<?xml version="1.0" encoding="UTF-8" standalone="no"?>
<!DOCTYPE svg PUBLIC "-//W3C//DTD SVG 1.1//EN" "http://www.w3.org/Graphics/SVG/1.1/DTD/svg11.dtd">
<svg width="100%" height="100%" viewBox="0 0 2889 1082" version="1.1" xmlns="http://www.w3.org/2000/svg" xmlns:xlink="http://www.w3.org/1999/xlink" xml:space="preserve" xmlns:serif="http://www.serif.com/" style="fill-rule:evenodd;clip-rule:evenodd;stroke-linejoin:round;stroke-miterlimit:2;">
    <g transform="matrix(1,0,0,1,-803.383,-3316.66)">
        <g transform="matrix(4.16667,0,0,4.16667,0,0)">
            <g transform="matrix(1,0,0,1,363.406,796.797)">
                <path d="M0,104.173L0,43.453L-19.897,82.957L-33.652,82.957L-53.695,43.453L-53.695,104.173L-74.034,104.173L-74.034,0L-53.987,0L-26.773,56.329L0.295,0L20.338,0L20.338,104.173L0,104.173Z" style="fill:rgb(250,250,250);fill-rule:nonzero;"/>
            </g>
        </g>
        <g transform="matrix(4.16667,0,0,4.16667,0,0)">
            <g transform="matrix(1,0,0,1,575.373,796.797)">
                <path d="M0,104.173L0,43.453L-19.897,82.957L-33.652,82.957L-53.699,43.453L-53.699,104.173L-74.034,104.173L-74.034,0L-53.99,0L-26.776,56.329L0.292,0L20.335,0L20.335,104.173L0,104.173Z" style="fill:rgb(250,250,250);fill-rule:nonzero;"/>
            </g>
        </g>
        <g transform="matrix(4.16667,0,0,4.16667,0,0)">
            <g transform="matrix(1,0,0,1,764.222,878.143)">
                <path d="M0,-58.523C-5.512,-65.835 -20.661,-65.763 -26.189,-58.522C-30.14,-54.132 -31.163,-49.305 -31.163,-29.261C-31.163,-9.214 -30.14,-4.387 -26.189,0.004C-20.66,7.235 -5.512,7.326 0,0.003C3.95,-4.387 5.119,-9.214 5.119,-29.261C5.119,-49.305 3.95,-54.132 0,-58.523M15.07,12.294C1.693,27.437 -27.866,27.365 -41.26,12.293C-51.793,1.756 -51.501,-11.262 -51.501,-29.261C-51.501,-47.257 -51.793,-60.279 -41.26,-70.813C-27.866,-85.88 1.693,-85.96 15.07,-70.812C25.604,-60.279 25.458,-47.257 25.458,-29.261C25.458,-11.262 25.604,1.756 15.07,12.294" style="fill:rgb(250,250,250);fill-rule:nonzero;"/>
            </g>
        </g>
        <g transform="matrix(4.16667,0,0,4.16667,0,0)">
            <g transform="matrix(1,0,0,1,450.346,900.649)">
                <path d="M0,-104L-15.925,-104L-53.756,0L-32.574,0L-7.45,-73.325L16.794,0L37.976,0L0,-104Z" style="fill:rgb(250,250,250);fill-rule:nonzero;"/>
            </g>
        </g>
        <g transform="matrix(4.16667,0,0,4.16667,0,0)">
            <g transform="matrix(1,0,0,1,661.403,814.909)">
                <path d="M0,67.63L-21.181,67.63L-21.181,-0.149L-1.312,-0.149C16.551,-1.073 16.551,24.733 -1.312,23.808L-1.191,42.065C17.552,41.276 18.951,67.771 0,67.63M19.574,32.425C43.661,19.805 31.912,-21.077 0.29,-18.258C0.291,-18.26 -41.482,-18.26 -41.482,-18.26L-41.482,85.741L2.045,85.741C33.727,88.707 45.892,44.324 19.574,32.425" style="fill:rgb(250,250,250);fill-rule:nonzero;"/>
            </g>
        </g>
        <g transform="matrix(4.16667,0,0,4.16667,0,0)">
            <g transform="matrix(0.909168,-0.416429,-0.416429,-0.909168,314.941,998.641)">
                <path d="M-19.533,-20.025C-44.883,10.164 -87.681,68.494 -95.763,84.203C-79.668,64.981 -43.829,30.268 -19.533,9.368C-9.784,20.3 -1.4,29.64 10.666,42.616C0.876,23.882 -9.327,2.971 -19.533,-20.025" style="fill:rgb(250,250,250);fill-rule:nonzero;"/>
            </g>
        </g>
        <g transform="matrix(4.16667,0,0,4.16667,0,0)">
            <g transform="matrix(0.90915,0.41647,0.41647,-0.90915,763.93,998.752)">
                <path d="M19.536,-20.027C44.885,10.164 87.68,68.496 95.762,84.205C79.667,64.982 43.829,30.267 19.536,9.366C9.786,20.298 1.402,29.637 -10.666,42.613C-0.875,23.879 9.329,2.969 19.536,-20.027" style="fill:rgb(250,250,250);fill-rule:nonzero;"/>
            </g>
        </g>
        <g transform="matrix(4.16667,0,0,4.16667,0,0)">
            <g transform="matrix(1,0,0,1,539.181,974.604)">
                <path d="M0,49.762C-70.393,13.017 -119.809,-4.454 -215.242,-31.194C-138.264,-0.239 -74.753,28.714 0.328,80.956L0.336,80.95L0.337,80.95L0.337,80.956C0.338,80.955 0.34,80.954 0.341,80.953L0.345,80.956L0.345,80.95L0.354,80.956C75.436,28.714 138.945,-0.239 215.924,-31.194C118.839,-5.631 66.501,15.169 0.008,49.762" style="fill:rgb(250,250,250);fill-rule:nonzero;"/>
            </g>
        </g>
        <g transform="matrix(4.16667,0,0,4.16667,0,0)">
            <g transform="matrix(1,0,0,1,363.406,796.797)">
                <path d="M0,104.173L0,43.453L-19.897,82.957L-33.652,82.957L-53.695,43.453L-53.695,104.173L-74.034,104.173L-74.034,0L-53.987,0L-26.773,56.329L0.295,0L20.338,0L20.338,104.173L0,104.173Z" style="fill:rgb(250,250,250);fill-rule:nonzero;"/>
            </g>
        </g>
        <g transform="matrix(4.16667,0,0,4.16667,0,0)">
            <g transform="matrix(1,0,0,1,575.373,796.797)">
                <path d="M0,104.173L0,43.453L-19.897,82.957L-33.652,82.957L-53.699,43.453L-53.699,104.173L-74.034,104.173L-74.034,0L-53.99,0L-26.776,56.329L0.292,0L20.335,0L20.335,104.173L0,104.173Z" style="fill:rgb(250,250,250);fill-rule:nonzero;"/>
            </g>
        </g>
        <g transform="matrix(4.16667,0,0,4.16667,0,0)">
            <g transform="matrix(1,0,0,1,764.222,878.143)">
                <path d="M0,-58.523C-5.512,-65.835 -20.661,-65.763 -26.189,-58.522C-30.14,-54.132 -31.163,-49.305 -31.163,-29.261C-31.163,-9.214 -30.14,-4.387 -26.189,0.004C-20.66,7.235 -5.512,7.326 0,0.003C3.95,-4.387 5.119,-9.214 5.119,-29.261C5.119,-49.305 3.95,-54.132 0,-58.523M15.07,12.294C1.693,27.437 -27.866,27.365 -41.26,12.293C-51.793,1.756 -51.501,-11.262 -51.501,-29.261C-51.501,-47.257 -51.793,-60.279 -41.26,-70.813C-27.866,-85.88 1.693,-85.96 15.07,-70.812C25.604,-60.279 25.458,-47.257 25.458,-29.261C25.458,-11.262 25.604,1.756 15.07,12.294" style="fill:rgb(250,250,250);fill-rule:nonzero;"/>
            </g>
        </g>
        <g transform="matrix(4.16667,0,0,4.16667,0,0)">
            <g transform="matrix(1,0,0,1,450.346,900.649)">
                <path d="M0,-104L-15.925,-104L-53.756,0L-32.574,0L-7.45,-73.325L16.794,0L37.976,0L0,-104Z" style="fill:rgb(250,250,250);fill-rule:nonzero;"/>
            </g>
        </g>
        <g transform="matrix(4.16667,0,0,4.16667,0,0)">
            <g transform="matrix(1,0,0,1,661.403,814.909)">
                <path d="M0,67.63L-21.181,67.63L-21.181,-0.149L-1.312,-0.149C16.551,-1.073 16.551,24.733 -1.312,23.808L-1.191,42.065C17.552,41.276 18.951,67.771 0,67.63M19.574,32.425C43.661,19.805 31.912,-21.077 0.29,-18.258C0.291,-18.26 -41.482,-18.26 -41.482,-18.26L-41.482,85.741L2.045,85.741C33.727,88.707 45.892,44.324 19.574,32.425" style="fill:rgb(250,250,250);fill-rule:nonzero;"/>
            </g>
        </g>
        <g transform="matrix(4.16667,0,0,4.16667,0,0)">
            <g transform="matrix(0.909168,-0.416429,-0.416429,-0.909168,314.941,998.641)">
                <path d="M-19.533,-20.025C-44.883,10.164 -87.681,68.494 -95.763,84.203C-79.668,64.981 -43.829,30.268 -19.533,9.368C-9.784,20.3 -1.4,29.64 10.666,42.616C0.876,23.882 -9.327,2.971 -19.533,-20.025" style="fill:rgb(250,250,250);fill-rule:nonzero;"/>
            </g>
        </g>
        <g transform="matrix(4.16667,0,0,4.16667,0,0)">
            <g transform="matrix(0.90915,0.41647,0.41647,-0.90915,763.93,998.752)">
                <path d="M19.536,-20.027C44.885,10.164 87.68,68.496 95.762,84.205C79.667,64.982 43.829,30.267 19.536,9.366C9.786,20.298 1.402,29.637 -10.666,42.613C-0.875,23.879 9.329,2.969 19.536,-20.027" style="fill:rgb(250,250,250);fill-rule:nonzero;"/>
            </g>
        </g>
        <g transform="matrix(4.16667,0,0,4.16667,0,0)">
            <g transform="matrix(1,0,0,1,539.181,974.604)">
                <path d="M0,49.762C-70.393,13.017 -119.809,-4.454 -215.242,-31.194C-138.264,-0.239 -74.753,28.714 0.328,80.956L0.336,80.95L0.337,80.95L0.337,80.956C0.338,80.955 0.34,80.954 0.341,80.953L0.345,80.956L0.345,80.95L0.354,80.956C75.436,28.714 138.945,-0.239 215.924,-31.194C118.839,-5.631 66.501,15.169 0.008,49.762" style="fill:rgb(250,250,250);fill-rule:nonzero;"/>
            </g>
        </g>
    </g>
</svg>
