<?xml version="1.0" encoding="UTF-8" standalone="no"?>
<!DOCTYPE svg PUBLIC "-//W3C//DTD SVG 1.1//EN" "http://www.w3.org/Graphics/SVG/1.1/DTD/svg11.dtd">
<svg width="100%" height="100%" viewBox="0 0 249 326" version="1.1" xmlns="http://www.w3.org/2000/svg" xmlns:xlink="http://www.w3.org/1999/xlink" xml:space="preserve" xmlns:serif="http://www.serif.com/" style="fill-rule:evenodd;clip-rule:evenodd;stroke-linejoin:round;stroke-miterlimit:2;">
    <g transform="matrix(1,0,0,1,-8301.95,-7721.99)">
        <g transform="matrix(4.16667,0,0,4.16667,8354.34,7856.78)">
            <path d="M0,-14.761C0.082,-14.161 0.18,-13.563 0.287,-12.972C0.648,-10.962 1.132,-8.977 1.731,-7.024C2.305,-5.137 2.986,-3.275 3.807,-1.478C4.16,-0.714 4.537,0.032 4.947,0.762C5.234,1.271 5.53,1.763 5.85,2.249C5.891,2.321 5.94,2.395 5.989,2.468C6.982,3.987 8.139,5.406 9.484,6.63C10.625,7.678 11.913,8.583 13.308,9.247C14.645,9.894 16.081,10.321 17.55,10.534C17.722,10.558 17.894,10.585 18.066,10.599C17.238,11.75 16.393,12.888 15.523,14.006C15.367,14.202 15.211,14.407 15.047,14.603C14.013,15.918 12.947,17.206 11.847,18.461C11.585,18.763 11.322,19.067 11.051,19.362C5.94,17.475 1.583,13.93 -1.863,9.083C-2.092,8.755 -2.314,8.426 -2.536,8.091C-3.192,7.09 -3.815,6.038 -4.398,4.938C-11.602,-8.615 -12.939,-29.48 -6.203,-32.065C-0.821,-34.123 9.689,-24.557 16.335,-16.78C18.69,-14.014 20.561,-11.479 21.537,-9.764C21.513,-9.756 21.488,-9.756 21.463,-9.756C19.904,-9.615 18.346,-9.322 16.836,-8.895C15.892,-8.632 14.965,-8.312 14.054,-7.943C13.111,-7.557 12.184,-7.115 11.281,-6.621C9.534,-9.214 6.268,-12.931 2.962,-16.081C0.919,-18.027 -0.402,-17.649 0,-14.761" style="fill:rgb(250,250,250);fill-rule:nonzero;"/>
        </g>
        <g transform="matrix(4.16667,0,0,4.16667,8473.61,7882.74)">
            <path d="M0,-14.56C-0.105,-14.322 -0.213,-14.091 -0.32,-13.855C-1.378,-11.548 -2.527,-9.285 -3.75,-7.053C-4.16,-6.314 -4.578,-5.576 -5.005,-4.846C-5.546,-4.862 -6.08,-4.846 -6.621,-4.795C-7.663,-4.706 -8.697,-4.493 -9.689,-4.164C-10.781,-3.812 -11.823,-3.32 -12.816,-2.752C-14.35,-1.868 -15.585,-0.954 -16.89,0.246C-17.029,0.369 -17.16,0.492 -17.292,0.614C-17.48,0.483 -17.661,0.336 -17.841,0.196C-18.719,-0.5 -19.523,-1.296 -20.253,-2.151C-20.943,-2.947 -21.574,-3.799 -22.149,-4.695C-22.674,-5.505 -23.15,-6.342 -23.584,-7.206C-23.618,-7.271 -23.642,-7.329 -23.675,-7.385C-19.843,-10.856 -15.671,-13.289 -10.83,-14.429C-9.714,-14.691 -8.574,-14.872 -7.409,-14.97C-4.997,-15.174 -2.478,-15.011 0,-14.56" style="fill:rgb(250,250,250);fill-rule:nonzero;"/>
        </g>
        <g transform="matrix(4.16667,0,0,4.16667,8457.24,7836.94)">
            <path d="M0,25.255C-0.37,25.738 -0.747,26.215 -1.124,26.692C-12.898,41.459 -28.192,53.257 -34.214,49.836C-40.187,46.447 -37.061,28.126 -27.839,13.776C-27.691,13.998 -27.543,14.211 -27.388,14.425C-26.419,15.795 -25.361,17.091 -24.196,18.297C-23.08,19.454 -21.874,20.528 -20.586,21.497C-22.941,25.615 -24.771,30.096 -25.854,34.042C-26.173,35.215 -26.428,36.339 -26.616,37.381C-25.722,36.767 -24.853,36.117 -23.999,35.453C-23.105,34.747 -22.235,34.019 -21.374,33.272C-19.544,31.671 -17.78,29.982 -16.082,28.234C-14.244,26.356 -12.488,24.401 -10.798,22.393C-10.133,21.605 -9.485,20.809 -8.845,19.995C-8.591,19.676 -8.336,19.349 -8.082,19.021C-7.303,18.01 -6.54,16.984 -5.811,15.95C-5.801,15.95 -5.801,15.942 -5.801,15.942C-3.094,12.177 -0.641,8.263 1.477,4.431L1.477,4.423C3.339,1.043 4.947,-2.256 6.227,-5.341C6.98,-7.162 7.622,-8.91 8.146,-10.525C9.197,-13.774 7.474,-14.079 4.824,-12.477C2.141,-10.853 -0.657,-8.885 -3.118,-6.883C-3.397,-7.302 -3.692,-7.72 -3.988,-8.13C-5.219,-9.837 -6.54,-11.47 -7.918,-13.06C-8.394,-13.611 -8.886,-14.169 -9.378,-14.702C-9.419,-14.751 -9.46,-14.792 -9.501,-14.842C-0.903,-21.832 10.461,-28.002 15.966,-26.533C25.869,-23.891 16.786,3.496 0,25.255" style="fill:rgb(250,250,250);fill-rule:nonzero;"/>
        </g>
        <g transform="matrix(0,-4.16667,-4.16667,0,8423.91,7879.02)">
            <path d="M-1.677,-1.678C-0.75,-1.678 0.001,-0.927 0.001,0C0.001,0.926 -0.75,1.677 -1.677,1.677C-2.605,1.677 -3.356,0.926 -3.356,0C-3.356,-0.927 -2.605,-1.678 -1.677,-1.678" style="fill:rgb(250,250,250);fill-rule:nonzero;"/>
        </g>
        <g transform="matrix(4.16667,0,0,4.16667,8523.08,7888.38)">
            <path d="M0,1.108C-0.927,1.108 -1.678,0.357 -1.678,-0.57C-1.678,-1.496 -0.927,-2.246 0,-2.246C0.927,-2.246 1.678,-1.496 1.678,-0.57C1.678,0.357 0.927,1.108 0,1.108M0,-11.523C-1.526,-8.043 -3.249,-4.656 -5.12,-1.349C-7.868,3.501 -10.938,8.176 -14.301,12.631C-4.242,10.506 6.966,3.712 6.556,-3.005C6.367,-6.067 3.782,-9.111 0,-11.523" style="fill:rgb(250,250,250);fill-rule:nonzero;"/>
        </g>
        <g transform="matrix(4.16667,0,0,4.16667,8425.85,8046.13)">
            <path d="M0,-7.874L2.233,-7.874L2.233,-7.003L2.354,-7.003C2.691,-7.537 3.395,-8.074 4.465,-8.074C5.521,-8.074 6.315,-7.66 6.806,-6.972L6.912,-6.972C7.479,-7.722 8.242,-8.074 9.252,-8.074C11.011,-8.074 12.188,-6.91 12.188,-5.228L12.188,0.2L9.818,0.2L9.818,-4.402C9.818,-5.29 9.421,-5.871 8.595,-5.871C7.813,-5.871 7.295,-5.228 7.295,-4.327L7.295,0.2L4.925,0.2L4.925,-4.463C4.925,-5.29 4.479,-5.871 3.671,-5.871C2.891,-5.871 2.37,-5.214 2.37,-4.342L2.37,0.2L0,0.2L0,-7.874Z" style="fill:rgb(250,250,250);fill-rule:nonzero;"/>
        </g>
        <g transform="matrix(4.16667,0,0,4.16667,8508.34,8030.15)">
            <path d="M0,-0.002C0,-1.224 -0.825,-2.096 -1.957,-2.096C-3.073,-2.096 -3.899,-1.224 -3.899,-0.002C-3.899,1.238 -3.073,2.095 -1.957,2.095C-0.825,2.095 0,1.225 0,-0.002M-6.301,-0.002C-6.301,-2.388 -4.558,-4.237 -1.941,-4.237C0.643,-4.237 2.401,-2.388 2.401,-0.002C2.401,2.386 0.643,4.235 -1.957,4.235C-4.542,4.235 -6.301,2.386 -6.301,-0.002" style="fill:rgb(250,250,250);fill-rule:nonzero;"/>
        </g>
        <g transform="matrix(4.16667,0,0,4.16667,6175.26,6480.79)">
            <rect x="563.909" y="367.807" width="2.37" height="8.074" style="fill:rgb(250,250,250);"/>
        </g>
    </g>
</svg>
