<?xml version="1.0" encoding="UTF-8" standalone="no"?>
<!DOCTYPE svg PUBLIC "-//W3C//DTD SVG 1.1//EN" "http://www.w3.org/Graphics/SVG/1.1/DTD/svg11.dtd">
<svg width="100%" height="100%" viewBox="0 0 92 92" version="1.1" xmlns="http://www.w3.org/2000/svg" xmlns:xlink="http://www.w3.org/1999/xlink" xml:space="preserve" xmlns:serif="http://www.serif.com/" style="fill-rule:evenodd;clip-rule:evenodd;stroke-linejoin:round;stroke-miterlimit:2;">
    <g transform="matrix(1,0,0,1,-2.05,-13.9748)">
        <path d="M82.4,90.5C97.9,73.1 97.9,46.9 82.5,29.5C82.4,29.4 82.3,29.3 82.2,29.2C65.2,10.3 36.2,8.8 17.3,25.8C16.1,26.9 15,28 13.9,29.2C13.8,29.3 13.7,29.4 13.6,29.5C-1.8,46.9 -1.8,73 13.6,90.4C13.7,90.5 13.8,90.6 13.9,90.7C30.9,109.6 59.9,111.1 78.8,94.1C80,93 81.1,91.9 82.2,90.7C82.2,90.7 82.3,90.6 82.4,90.5ZM6.1,62L24.1,62C24.2,69 25.2,75.9 27.1,82.6C23.2,83.6 19.4,85 15.8,86.8C9.9,79.8 6.5,71.1 6.1,62ZM15.7,33.2C19.3,35 23.1,36.4 27,37.4C25.1,44.1 24.1,51 24,58L6,58C6.4,48.9 9.8,40.2 15.7,33.2ZM90,58L72,58C71.9,51 70.9,44.1 69,37.4C72.9,36.4 76.7,35 80.3,33.2C86.2,40.2 89.6,48.9 90,58ZM46,36C41.4,35.9 36.8,35.4 32.2,34.5C35.5,25.6 40.4,19.4 46,18.2L46,36ZM31,38.3C35.9,39.3 41,39.9 46,40L46,58L28,58C28.1,51.3 29.1,44.7 31,38.3ZM46,62L46,80C41,80.1 35.9,80.6 31,81.6C29.1,75.2 28.1,68.6 28,62L46,62ZM46,84L46,101.8C40.5,100.6 35.5,94.4 32.2,85.5C36.8,84.6 41.4,84.1 46,84ZM50,84C54.6,84.1 59.2,84.6 63.8,85.5C60.5,94.4 55.6,100.6 50,101.8L50,84ZM65,81.6C60.1,80.6 55,80.1 50,80L50,62L68,62C67.9,68.7 66.9,75.3 65,81.6ZM50,58L50,40C55,39.9 60.1,39.4 65,38.4C66.9,44.8 67.9,51.4 68,58L50,58ZM50,36L50,18.2C55.5,19.4 60.5,25.6 63.8,34.5C59.2,35.4 54.6,35.9 50,36ZM67.8,33.6C66.1,28.4 63.4,23.7 59.7,19.6C66.4,21.6 72.5,25.1 77.5,30.1C74.4,31.6 71.1,32.7 67.8,33.6ZM28.2,33.6C24.9,32.8 21.6,31.6 18.5,30.1C23.5,25.2 29.6,21.6 36.3,19.6C32.7,23.7 29.9,28.4 28.2,33.6ZM28.2,86.4C29.9,91.5 32.6,96.3 36.2,100.3C29.5,98.3 23.4,94.7 18.4,89.8C21.6,88.4 24.9,87.3 28.2,86.4ZM67.8,86.4C71.1,87.2 74.4,88.4 77.5,89.9C72.5,94.8 66.4,98.4 59.7,100.3C63.3,96.3 66.1,91.6 67.8,86.4ZM69,82.6C70.9,75.9 71.9,69 72,62L90,62C89.6,71.1 86.2,79.8 80.3,86.8C76.7,85 72.9,83.6 69,82.6Z" style="fill:white;fill-rule:nonzero;"/>
    </g>
</svg>
